<?xml version="1.0" standalone="no"?><!DOCTYPE svg PUBLIC "-//W3C//DTD SVG 1.1//EN" "http://www.w3.org/Graphics/SVG/1.1/DTD/svg11.dtd"><svg t="1544142653126" class="icon" style="" viewBox="0 0 1024 1024" version="1.1" xmlns="http://www.w3.org/2000/svg" p-id="2417" xmlns:xlink="http://www.w3.org/1999/xlink" width="200" height="200"><defs><style type="text/css"></style></defs><path d="M512 64c53.4 0 103.6 20.8 141.4 58.6 37.8 37.8 58.6 88 58.6 141.4s-20.8 103.6-58.6 141.4S565.4 464 512 464s-103.6-20.8-141.4-58.6S312 317.4 312 264s20.8-103.6 58.6-141.4C408.4 84.8 458.5 64 512 64m0-64C366.2 0 248 118.2 248 264s118.2 264 264 264 264-118.2 264-264S657.8 0 512 0zM512 576h-32.5c-9.1 0-16.5 7.4-16.5 16.5-3.5 51.9-11.1 101.8-6.8 154.7 0.1 1.9 55.9 172.4 55.9 172.4V576h-0.1z" fill="" p-id="2418"></path><path d="M512 919.7s55.8-170.5 55.9-172.4c4.2-53-3.3-102.8-6.8-154.7 0-9.1-7.4-16.5-16.5-16.5h-32.5v343.6h-0.1zM282.5 623.9L391.7 960H79.1c4.4-77.1 29.7-150.9 73.7-214.5 23.5-33.9 51.8-64.2 84.1-90 14.5-11.6 29.8-22.1 45.6-31.6m38-90c-179.3 71-306 245.9-306 450.4 0 13.4 0.6 26.6 1.6 39.7h463.7L320.5 533.9zM741.5 623.9c15.8 9.5 31 20.1 45.5 31.6 32.3 25.8 60.6 56 84.1 90 44.1 63.7 69.3 137.4 73.7 214.5H632.3l109.2-336.1m-38.1-90L544.2 1024h463.7c1.1-13.1 1.6-26.3 1.6-39.7 0-204.5-126.8-379.4-306.1-450.4z" fill="" p-id="2419"></path></svg>