<?xml version="1.0" standalone="no"?><!DOCTYPE svg PUBLIC "-//W3C//DTD SVG 1.1//EN" "http://www.w3.org/Graphics/SVG/1.1/DTD/svg11.dtd"><svg t="1544142617219" class="icon" style="" viewBox="0 0 1024 1024" version="1.1" xmlns="http://www.w3.org/2000/svg" p-id="1948" xmlns:xlink="http://www.w3.org/1999/xlink" width="200" height="200"><defs><style type="text/css"></style></defs><path d="M896 187.04v321.28a22.24 22.24 0 0 1-13.6 18.24 25.6 25.6 0 0 1-24-1.76 21.44 21.44 0 0 1-10.4-20V187.04a16 16 0 0 0-16-14.72H128a16 16 0 0 0-16 14.72v649.92a16 16 0 0 0 16 14.72h396a22.72 22.72 0 0 1 21.92 24A23.36 23.36 0 0 1 520 896H128a61.6 61.6 0 0 1-64-59.04V187.04A61.6 61.6 0 0 1 128 128h704a61.6 61.6 0 0 1 64 59.04z" fill="" p-id="1949"></path><path d="M336 276a80 80 0 1 1-80 80 80 80 0 0 1 80-80z m0-48a128 128 0 1 0 128 128 128 128 0 0 0-128-128z" fill="" p-id="1950"></path><path d="M528 644a24 24 0 0 1-48 0 144 144 0 0 0-288 0 24 24 0 0 1-48 0 192 192 0 0 1 384 0zM568 416h192a21.28 21.28 0 0 1 24 24 21.28 21.28 0 0 1-24 24h-192a21.28 21.28 0 0 1-24-24 21.28 21.28 0 0 1 24-24zM568 272h192a21.28 21.28 0 0 1 24 24 21.28 21.28 0 0 1-24 24h-192a21.28 21.28 0 0 1-24-24 21.28 21.28 0 0 1 24-24z" fill="" p-id="1951"></path><path d="M955.36 868.64l-96-96a160 160 0 1 0-22.56 22.56l96 96a16 16 0 0 0 16 4.16 16 16 0 0 0 11.36-11.36 16 16 0 0 0-4.16-16zM608 672a128 128 0 1 1 128 128 128 128 0 0 1-128-128z" fill="#0070FF" p-id="1952"></path></svg>