<?xml version="1.0" standalone="no"?><!DOCTYPE svg PUBLIC "-//W3C//DTD SVG 1.1//EN" "http://www.w3.org/Graphics/SVG/1.1/DTD/svg11.dtd"><svg t="1544142671455" class="icon" style="" viewBox="0 0 1024 1024" version="1.1" xmlns="http://www.w3.org/2000/svg" p-id="3298" xmlns:xlink="http://www.w3.org/1999/xlink" width="200" height="200"><defs><style type="text/css"></style></defs><path d="M440.8 1020c-53.6 0-106.4-12.8-155.2-38.4-151.2-79.2-219.2-264.8-155.2-422.4 26.4-64.8 71.2-118.4 129.6-156 0.8-0.8 1.6-0.8 2.4-1.6L869.6 7.2c7.2-4.8 16.8-2.4 21.6 4.8l119.2 183.2c2.4 3.2 3.2 8 2.4 12-0.8 4-3.2 8-7.2 9.6L824 333.6c-75.2 48.8-104 143.2-70.4 230.4 32.8 86.4 29.6 179.2-9.6 263.2-39.2 83.2-108.8 145.6-196.8 175.2-34.4 12-70.4 17.6-106.4 17.6zM281.6 426.4c-0.8 0.8-1.6 1.6-2.4 1.6C224.8 462.4 184 511.2 160 570.4c-58.4 143.2 4 311.2 140.8 383.2 74.4 38.4 158.4 45.6 237.6 19.2 79.2-26.4 142.4-83.2 177.6-158.4 35.2-75.2 38.4-160 8.8-238.4-39.2-100.8-4.8-211.2 82.4-268.8l168-108.8-101.6-156.8-592 384.8z" p-id="3299"></path><path d="M441.6 876.8c-63.2 0-124.8-31.2-161.6-87.2-28-43.2-37.6-94.4-27.2-144.8 10.4-50.4 40-93.6 83.2-121.6 88.8-57.6 208.8-32.8 266.4 56.8 57.6 88.8 32.8 208.8-56.8 266.4-32 20.8-68 30.4-104 30.4z m-0.8-368.8c-32.8 0-66.4 9.6-96 28.8-39.2 25.6-66.4 65.6-76.8 111.2-9.6 46.4-0.8 93.6 24.8 132.8 52.8 81.6 162.4 104.8 244.8 52 81.6-52.8 104.8-162.4 52-244.8-33.6-52-90.4-80-148.8-80zM114.4 1000c-7.2 0-14.4-0.8-21.6-2.4-27.2-5.6-50.4-21.6-64.8-44.8-31.2-48-17.6-112 30.4-143.2l70.4-45.6c4-2.4 9.6-3.2 13.6-1.6 4.8 1.6 8 5.6 9.6 10.4 16.8 54.4 48 103.2 90.4 140 4 3.2 5.6 8 5.6 12.8 0 4.8-3.2 9.6-7.2 12l-69.6 45.6c-17.6 11.2-36.8 16.8-56.8 16.8z m14.4-197.6l-53.6 34.4c-32.8 21.6-42.4 66.4-20.8 99.2 10.4 16 26.4 27.2 45.6 31.2 18.4 4 37.6 0.8 53.6-10.4l52.8-34.4c-34.4-33.6-60.8-74.4-77.6-120z" p-id="3300"></path></svg>