<?xml version="1.0" standalone="no"?><!DOCTYPE svg PUBLIC "-//W3C//DTD SVG 1.1//EN" "http://www.w3.org/Graphics/SVG/1.1/DTD/svg11.dtd"><svg t="1544142705160" class="icon" style="" viewBox="0 0 1024 1024" version="1.1" xmlns="http://www.w3.org/2000/svg" p-id="4685" xmlns:xlink="http://www.w3.org/1999/xlink" width="200" height="200"><defs><style type="text/css"></style></defs><path d="M202.4 917.6c-7.2 0-14.4-1.6-20.8-4-32-12-48.8-47.2-37.6-80l72-199.2c6.4-17.6 20.8-32 38.4-37.6l52.8-18.4-56.8-164H137.6c-22.4 0-42.4-12-53.6-31.2l-72-123.2C-5.6 230.4 4.8 192 34.4 175.2c29.6-17.6 68-7.2 84.8 22.4l53.6 92h68.8L368 252.8c4-1.6 8-2.4 12.8-3.2h0.8c3.2-0.8 6.4-0.8 9.6-0.8h151.2c18.4 0 36 8 48 22.4l83.2 101.6c21.6 26.4 18.4 65.6-8.8 88-11.2 8.8-24.8 14.4-39.2 14.4-18.4 0-36-8-48-22.4l-64.8-78.4h-68l78.4 213.6 40 90.4 184 121.6c28.8 19.2 36.8 57.6 17.6 86.4-11.2 17.6-31.2 28-52 28-12 0-24-3.2-34.4-10.4L480 772c-9.6-6.4-17.6-16-22.4-26.4L424 670.4l-101.6 35.2-61.6 170.4c-8.8 24.8-32.8 41.6-58.4 41.6z m-136-718.4c-4.8 0-10.4 1.6-15.2 4-14.4 8-19.2 27.2-11.2 41.6L112 368c5.6 9.6 15.2 15.2 26.4 15.2h122.4c7.2 0 12.8 4 15.2 10.4L341.6 584c1.6 4 0.8 8.8-0.8 12-1.6 4-4.8 6.4-9.6 8L264 627.2c-8.8 3.2-15.2 9.6-18.4 18.4l-72 199.2c-5.6 16 2.4 32.8 18.4 38.4 3.2 0.8 6.4 1.6 10.4 1.6 12.8 0 24-8 28.8-20l64-177.6c1.6-4.8 5.6-8 9.6-9.6l118.4-40.8c0.8 0 2.4-0.8 3.2-1.6 4-1.6 8-2.4 12-0.8 4 1.6 7.2 4.8 8.8 8.8l39.2 88c2.4 5.6 6.4 9.6 11.2 12.8l199.2 131.2c4.8 3.2 10.4 4.8 16.8 4.8 10.4 0 20-4.8 25.6-13.6 9.6-13.6 5.6-32.8-8.8-41.6L542.4 702.4c-2.4-1.6-4.8-4-5.6-7.2L494.4 600s0-0.8-0.8-0.8L408 363.2c-1.6-4.8-0.8-10.4 1.6-14.4 3.2-4 8-7.2 12.8-7.2h98.4c4.8 0 9.6 2.4 12 5.6L603.2 432c5.6 7.2 14.4 11.2 23.2 11.2 7.2 0 13.6-2.4 19.2-7.2 12.8-10.4 14.4-29.6 4-42.4L566.4 292c-5.6-7.2-14.4-11.2-23.2-11.2H392c-1.6 0-3.2 0-4.8 0.8-2.4 0.8-4.8 0.8-6.4 1.6-0.8 0-0.8 0.8-1.6 0.8l-128.8 37.6c-1.6 0.8-3.2 0.8-4.8 0.8h-80c-5.6 0-11.2-3.2-13.6-8l-58.4-100c-6.4-9.6-16.8-15.2-27.2-15.2z" p-id="4686"></path><path d="M285.6 275.2c-46.4 0-84.8-37.6-84.8-84.8 0-46.4 37.6-84.8 84.8-84.8 46.4 0 84.8 37.6 84.8 84.8-0.8 47.2-38.4 84.8-84.8 84.8z m0-136.8c-28.8 0-52.8 23.2-52.8 52.8s23.2 52.8 52.8 52.8c28.8 0 52.8-23.2 52.8-52.8s-24-52.8-52.8-52.8zM979.2 327.2H684c-8.8 0-16-7.2-16-16s7.2-16 16-16h294.4c8.8 0 16 7.2 16 16 0.8 8.8-6.4 16-15.2 16zM937.6 443.2h-208c-8.8 0-16-7.2-16-16s7.2-16 16-16h208.8c8.8 0 16 7.2 16 16s-8 16-16.8 16zM937.6 558.4H620c-8.8 0-16-7.2-16-16s7.2-16 16-16h317.6c8.8 0 16 7.2 16 16s-7.2 16-16 16zM909.6 673.6H676c-8.8 0-16-7.2-16-16s7.2-16 16-16h233.6c8.8 0 16 7.2 16 16s-7.2 16-16 16zM1004 788.8H770.4c-8.8 0-16-7.2-16-16s7.2-16 16-16h233.6c8.8 0 16 7.2 16 16s-7.2 16-16 16z" p-id="4687"></path></svg>