<?xml version="1.0" standalone="no"?><!DOCTYPE svg PUBLIC "-//W3C//DTD SVG 1.1//EN" "http://www.w3.org/Graphics/SVG/1.1/DTD/svg11.dtd"><svg t="1543543756139" class="icon" style="" viewBox="0 0 1024 1024" version="1.1" xmlns="http://www.w3.org/2000/svg" p-id="2846" xmlns:xlink="http://www.w3.org/1999/xlink" width="200" height="200"><defs><style type="text/css"></style></defs><path d="M821.236482 446.237227c-16.790408 0-27.983331 11.1919-27.983332 27.984355v358.212428c0 39.177278-27.987425 72.760141-67.168795 72.76014h-520.525164c-39.183418 0-83.956134-33.58184-83.956134-72.76014V311.904753c0-39.178301 44.772716-78.359672 83.956134-78.359673h296.646234c16.792455 0 27.985378-11.192923 27.985378-27.985377 0-16.791431-11.192923-27.984355-27.985378-27.984355h-296.646234c-78.357626 0-139.925866 55.969733-139.925866 134.329405v520.529257c0 78.354556 61.569264 128.729873 139.925866 128.729873h520.526187c78.360695 0 123.136481-50.375318 123.136482-128.729873V479.814973c0-16.787338-11.19497-33.577746-27.985378-33.577746m111.942535-313.437665l-44.77374-44.775786c-33.584909-33.583886-89.560782-33.583886-123.138528 0l-78.356602 95.149057-425.381224 414.183184v11.192923l-55.968709 184.701652 39.177278 33.58184 173.510776-61.566195h11.192923L838.02996 334.293669l95.151103-78.359672c33.580816-33.582863 33.580816-89.550549-0.002046-123.134435M283.918863 748.475829l27.983331-78.360695 50.376341 50.376341-78.359672 27.984354m128.729873-55.968709l-78.355579-78.357625L720.49301 233.54508 793.25315 306.309314 412.648736 692.50712m481.346863-481.348909l-55.967686 55.969732-83.957157-83.95511 55.973826-55.972803c5.592368 0 16.790408-5.594415 22.384823-5.594415 5.598508 0 16.790408 5.594415 22.388916 5.594415l44.777833 44.775786c5.597485 11.19804 5.597485 27.989471-5.600555 39.182395m0 0z" p-id="2847"></path></svg>